<svg width="32" height="32" viewBox="0 0 32 32" fill="none" xmlns="http://www.w3.org/2000/svg">
<circle opacity="0.2" cx="16" cy="16" r="15.5" stroke="#38EF7D"/>
<path d="M10.9399 8.99999C10.9397 9.53043 10.7287 10.039 10.3534 10.4139C9.97819 10.7888 9.46937 10.9993 8.93894 10.999C8.40851 10.9987 7.89991 10.7878 7.52502 10.4125C7.15014 10.0372 6.93968 9.52843 6.93994 8.99799C6.94021 8.46756 7.15117 7.95896 7.52644 7.58407C7.9017 7.20919 8.41051 6.99873 8.94094 6.99899C9.47137 6.99926 9.97998 7.21023 10.3549 7.58549C10.7297 7.96075 10.9402 8.46956 10.9399 8.99999ZM10.9999 12.48H6.99994V25H10.9999V12.48ZM17.3199 12.48H13.3399V25H17.2799V18.43C17.2799 14.77 22.0499 14.43 22.0499 18.43V25H25.9999V17.07C25.9999 10.9 18.9399 11.13 17.2799 14.16L17.3199 12.48Z" fill="#38EF7D"/>
</svg>
