<svg width="32" height="32" viewBox="0 0 32 32" fill="none" xmlns="http://www.w3.org/2000/svg">
<path d="M26.2076 6.45532C26.0914 6.35498 25.95 6.28825 25.7987 6.26231C25.6474 6.23637 25.4918 6.25222 25.3489 6.30814L6.34949 13.7434C6.08023 13.8482 5.85226 14.0375 5.69992 14.283C5.54758 14.5284 5.4791 14.8168 5.5048 15.1045C5.5305 15.3923 5.64898 15.6639 5.84241 15.8785C6.03584 16.0931 6.29375 16.2391 6.5773 16.2944L11.5001 17.2609V22.75C11.4991 23.049 11.588 23.3414 11.7552 23.5893C11.9223 23.8372 12.1601 24.0291 12.4376 24.1403C12.7147 24.2535 13.0195 24.2806 13.3122 24.2183C13.605 24.1559 13.8722 24.0069 14.0792 23.7906L16.4529 21.3288L20.2189 24.625C20.4906 24.866 20.841 24.9994 21.2042 25C21.3633 24.9999 21.5215 24.9749 21.6729 24.9259C21.9204 24.8474 22.1429 24.7055 22.3184 24.5142C22.494 24.3229 22.6163 24.0889 22.6732 23.8356L26.4786 7.28126C26.5126 7.13196 26.5054 6.97622 26.4576 6.83072C26.4099 6.68522 26.3235 6.55545 26.2076 6.45532ZM20.4757 9.83032L12.0767 15.8453L7.42668 14.9331L20.4757 9.83032ZM13.0001 22.75V18.2988L15.3242 20.3369L13.0001 22.75ZM21.2061 23.5L13.4548 16.7031L24.6111 8.7072L21.2061 23.5Z" fill="#38EF7D"/>
<circle opacity="0.2" cx="16" cy="16" r="15.5" stroke="#38EF7D"/>
</svg>
