<svg width="22" height="19" viewBox="0 0 22 19" fill="none" xmlns="http://www.w3.org/2000/svg">
  <path d="M21.2076 0.455323C21.0914 0.354981 20.95 0.288247 20.7987 0.26231C20.6474 0.236374 20.4918 0.252218 20.3489 0.308136L1.34949 7.74345C1.08023 7.84815 0.852262 8.0375 0.699919 8.28297C0.547576 8.52844 0.479099 8.81676 0.504798 9.10452C0.530496 9.39228 0.648979 9.66391 0.842409 9.8785C1.03584 10.0931 1.29375 10.2391 1.5773 10.2944L6.50011 11.2609V16.75C6.49915 17.049 6.588 17.3414 6.75515 17.5893C6.92231 17.8372 7.16007 18.0291 7.43761 18.1403C7.71473 18.2535 8.01948 18.2806 8.31225 18.2183C8.60501 18.1559 8.87224 18.0069 9.07918 17.7906L11.4529 15.3288L15.2189 18.625C15.4906 18.866 15.841 18.9994 16.2042 19C16.3633 18.9999 16.5215 18.9749 16.6729 18.9259C16.9204 18.8474 17.1429 18.7055 17.3184 18.5142C17.494 18.3229 17.6163 18.0889 17.6732 17.8356L21.4786 1.28126C21.5126 1.13196 21.5054 0.976218 21.4576 0.830718C21.4099 0.685218 21.3235 0.55545 21.2076 0.455323ZM15.4757 3.83032L7.07668 9.84532L2.42668 8.93314L15.4757 3.83032ZM8.00011 16.75V12.2988L10.3242 14.3369L8.00011 16.75ZM16.2061 17.5L8.4548 10.7031L19.6111 2.7072L16.2061 17.5Z" fill="#38EF7D"/>
</svg>
