<svg width="21" height="21" viewBox="0 0 21 21" fill="none" xmlns="http://www.w3.org/2000/svg">
  <path d="M19.5291 5.095C19.7583 4.35549 19.8318 3.57651 19.745 2.80717C19.6582 2.03783 19.413 1.29482 19.0247 0.624997C18.9588 0.510958 18.8641 0.416264 18.7501 0.350436C18.636 0.284608 18.5067 0.249967 18.375 0.249997C17.5014 0.248168 16.6395 0.450682 15.8582 0.841357C15.0768 1.23203 14.3977 1.80004 13.875 2.5H11.625C11.1023 1.80004 10.4232 1.23203 9.64182 0.841357C8.86047 0.450682 7.99857 0.248168 7.125 0.249997C6.99332 0.249967 6.86395 0.284608 6.7499 0.350436C6.63586 0.416264 6.54115 0.510958 6.47531 0.624997C6.08704 1.29482 5.84177 2.03783 5.75497 2.80717C5.66816 3.57651 5.74169 4.35549 5.97094 5.095C5.50756 5.90379 5.25934 6.81791 5.25 7.75V8.5C5.25158 9.769 5.71225 10.9946 6.54696 11.9504C7.38166 12.9063 8.53402 13.5278 9.79125 13.7003C9.27807 14.357 8.99952 15.1666 9 16V16.75H6.75C6.15326 16.75 5.58097 16.5129 5.15901 16.091C4.73705 15.669 4.5 15.0967 4.5 14.5C4.5 14.0075 4.403 13.5199 4.21455 13.0649C4.02609 12.61 3.74987 12.1966 3.40165 11.8483C3.05343 11.5001 2.64003 11.2239 2.18506 11.0354C1.73009 10.847 1.24246 10.75 0.75 10.75C0.551088 10.75 0.360322 10.829 0.21967 10.9697C0.0790176 11.1103 0 11.3011 0 11.5C0 11.6989 0.0790176 11.8897 0.21967 12.0303C0.360322 12.171 0.551088 12.25 0.75 12.25C1.34674 12.25 1.91903 12.4871 2.34099 12.909C2.76295 13.331 3 13.9033 3 14.5C3 15.4946 3.39509 16.4484 4.09835 17.1516C4.80161 17.8549 5.75544 18.25 6.75 18.25H9V19.75C9 19.9489 9.07902 20.1397 9.21967 20.2803C9.36032 20.421 9.55109 20.5 9.75 20.5C9.94891 20.5 10.1397 20.421 10.2803 20.2803C10.421 20.1397 10.5 19.9489 10.5 19.75V16C10.5 15.4033 10.7371 14.831 11.159 14.409C11.581 13.9871 12.1533 13.75 12.75 13.75C13.3467 13.75 13.919 13.9871 14.341 14.409C14.7629 14.831 15 15.4033 15 16V19.75C15 19.9489 15.079 20.1397 15.2197 20.2803C15.3603 20.421 15.5511 20.5 15.75 20.5C15.9489 20.5 16.1397 20.421 16.2803 20.2803C16.421 20.1397 16.5 19.9489 16.5 19.75V16C16.5005 15.1666 16.2219 14.357 15.7087 13.7003C16.966 13.5278 18.1183 12.9063 18.953 11.9504C19.7877 10.9946 20.2484 9.769 20.25 8.5V7.75C20.2407 6.81791 19.9924 5.90379 19.5291 5.095ZM18.75 8.5C18.75 9.49456 18.3549 10.4484 17.6516 11.1516C16.9484 11.8549 15.9946 12.25 15 12.25H10.5C9.50544 12.25 8.55161 11.8549 7.84835 11.1516C7.14509 10.4484 6.75 9.49456 6.75 8.5V7.75C6.7592 7.00002 6.98373 6.26849 7.39688 5.6425C7.47389 5.54098 7.52377 5.42152 7.54182 5.29539C7.55986 5.16925 7.54547 5.04059 7.5 4.92156C7.30465 4.41774 7.21063 3.88033 7.22334 3.34012C7.23605 2.7999 7.35523 2.26751 7.57406 1.77343C8.18786 1.83946 8.77892 2.04279 9.30344 2.36835C9.82796 2.6939 10.2725 3.13333 10.6041 3.65406C10.6716 3.75972 10.7646 3.84675 10.8745 3.90718C10.9844 3.96762 11.1077 3.99953 11.2331 4H14.2659C14.3918 4 14.5157 3.96831 14.6261 3.90786C14.7366 3.8474 14.83 3.76012 14.8978 3.65406C15.2293 3.13328 15.6738 2.69382 16.1984 2.36826C16.7229 2.0427 17.314 1.8394 17.9278 1.77343C18.1463 2.26763 18.2652 2.80009 18.2776 3.3403C18.29 3.88052 18.1956 4.41787 18 4.92156C17.9547 5.03945 17.9395 5.1668 17.9559 5.29205C17.9722 5.41729 18.0196 5.53646 18.0938 5.63875C18.511 6.26474 18.7388 6.99778 18.75 7.75V8.5Z" fill="#38EF7D"/>
</svg>
