<svg width="32" height="32" viewBox="0 0 32 32" fill="none" xmlns="http://www.w3.org/2000/svg">
<circle opacity="0.2" cx="16" cy="16" r="15.5" stroke="#38EF7D"/>
<g clip-path="url(#clip0_308_107)">
<path d="M23.5291 11.095C23.7583 10.3555 23.8318 9.57651 23.745 8.80717C23.6582 8.03783 23.413 7.29482 23.0247 6.625C22.9588 6.51096 22.8641 6.41626 22.7501 6.35044C22.636 6.28461 22.5067 6.24997 22.375 6.25C21.5014 6.24817 20.6395 6.45068 19.8582 6.84136C19.0768 7.23203 18.3977 7.80004 17.875 8.5H15.625C15.1023 7.80004 14.4232 7.23203 13.6418 6.84136C12.8605 6.45068 11.9986 6.24817 11.125 6.25C10.9933 6.24997 10.864 6.28461 10.7499 6.35044C10.6359 6.41626 10.5412 6.51096 10.4753 6.625C10.087 7.29482 9.84177 8.03783 9.75497 8.80717C9.66816 9.57651 9.74169 10.3555 9.97094 11.095C9.50756 11.9038 9.25934 12.8179 9.25 13.75V14.5C9.25158 15.769 9.71225 16.9946 10.547 17.9504C11.3817 18.9063 12.534 19.5278 13.7913 19.7003C13.2781 20.357 12.9995 21.1666 13 22V22.75H10.75C10.1533 22.75 9.58097 22.5129 9.15901 22.091C8.73705 21.669 8.5 21.0967 8.5 20.5C8.5 20.0075 8.403 19.5199 8.21455 19.0649C8.02609 18.61 7.74987 18.1966 7.40165 17.8483C7.05343 17.5001 6.64003 17.2239 6.18506 17.0354C5.73009 16.847 5.24246 16.75 4.75 16.75C4.55109 16.75 4.36032 16.829 4.21967 16.9697C4.07902 17.1103 4 17.3011 4 17.5C4 17.6989 4.07902 17.8897 4.21967 18.0303C4.36032 18.171 4.55109 18.25 4.75 18.25C5.34674 18.25 5.91903 18.4871 6.34099 18.909C6.76295 19.331 7 19.9033 7 20.5C7 21.4946 7.39509 22.4484 8.09835 23.1516C8.80161 23.8549 9.75544 24.25 10.75 24.25H13V25.75C13 25.9489 13.079 26.1397 13.2197 26.2803C13.3603 26.421 13.5511 26.5 13.75 26.5C13.9489 26.5 14.1397 26.421 14.2803 26.2803C14.421 26.1397 14.5 25.9489 14.5 25.75V22C14.5 21.4033 14.7371 20.831 15.159 20.409C15.581 19.9871 16.1533 19.75 16.75 19.75C17.3467 19.75 17.919 19.9871 18.341 20.409C18.7629 20.831 19 21.4033 19 22V25.75C19 25.9489 19.079 26.1397 19.2197 26.2803C19.3603 26.421 19.5511 26.5 19.75 26.5C19.9489 26.5 20.1397 26.421 20.2803 26.2803C20.421 26.1397 20.5 25.9489 20.5 25.75V22C20.5005 21.1666 20.2219 20.357 19.7087 19.7003C20.966 19.5278 22.1183 18.9063 22.953 17.9504C23.7877 16.9946 24.2484 15.769 24.25 14.5V13.75C24.2407 12.8179 23.9924 11.9038 23.5291 11.095ZM22.75 14.5C22.75 15.4946 22.3549 16.4484 21.6517 17.1516C20.9484 17.8549 19.9946 18.25 19 18.25H14.5C13.5054 18.25 12.5516 17.8549 11.8483 17.1516C11.1451 16.4484 10.75 15.4946 10.75 14.5V13.75C10.7592 13 10.9837 12.2685 11.3969 11.6425C11.4739 11.541 11.5238 11.4215 11.5418 11.2954C11.5599 11.1692 11.5455 11.0406 11.5 10.9216C11.3046 10.4177 11.2106 9.88033 11.2233 9.34012C11.236 8.7999 11.3552 8.26751 11.5741 7.77343C12.1879 7.83946 12.7789 8.04279 13.3034 8.36834C13.828 8.6939 14.2725 9.13333 14.6041 9.65406C14.6716 9.75972 14.7646 9.84675 14.8745 9.90718C14.9844 9.96762 15.1077 9.99953 15.2331 10H18.2659C18.3918 10 18.5157 9.96831 18.6261 9.90786C18.7366 9.8474 18.83 9.76012 18.8978 9.65406C19.2293 9.13328 19.6738 8.69382 20.1984 8.36826C20.7229 8.0427 21.314 7.8394 21.9278 7.77343C22.1463 8.26763 22.2652 8.80009 22.2776 9.3403C22.29 9.88052 22.1956 10.4179 22 10.9216C21.9547 11.0395 21.9395 11.1668 21.9559 11.292C21.9722 11.4173 22.0196 11.5365 22.0938 11.6387C22.511 12.2647 22.7388 12.9978 22.75 13.75V14.5Z" fill="#38EF7D"/>
</g>
<defs>
<clipPath id="clip0_308_107">
<rect width="24" height="24" fill="white" transform="translate(4 4)"/>
</clipPath>
</defs>
</svg>
